<?xml version="1.0" standalone="no"?>
<!DOCTYPE svg PUBLIC "-//W3C//DTD SVG 20010904//EN"
 "http://www.w3.org/TR/2001/REC-SVG-20010904/DTD/svg10.dtd">
<svg version="1.0" xmlns="http://www.w3.org/2000/svg"
 width="140px" height="140px" viewBox="0 0 142.000000 200.000000"
 preserveAspectRatio="xMidYMid meet">

<g transform="translate(0.000000,200.000000) scale(0.100000,-0.100000)"
fill="#000000" stroke="none">
<path d="M2 1398 l3 -603 22 -3 c30 -4 30 -22 1 -19 -21 2 -23 -2 -20 -38 2
-26 11 -46 25 -58 l22 -18 -22 10 c-31 16 -33 15 -33 -23 0 -40 20 -97 27 -78
3 7 21 12 41 12 l37 -1 -50 -17 -50 -17 -1 -273 -2 -272 709 0 709 0 0 1000 0
1000 -711 0 -711 0 4 -602z m583 330 c32 -14 38 -62 10 -83 -10 -9 -11 -15 -1
-33 12 -22 13 -21 35 27 17 34 31 51 47 54 13 2 26 2 29 -1 3 -3 5 -36 5 -74
0 -48 3 -67 11 -62 6 3 9 17 6 30 -2 13 -1 21 3 19 5 -3 11 2 14 11 9 24 7 34
-6 34 -7 0 -14 14 -15 33 -1 17 1 27 5 20 4 -6 28 -11 53 -10 24 0 50 -3 57
-7 7 -4 12 -3 12 2 0 5 10 8 23 7 16 -1 23 -9 25 -29 3 -22 6 -25 18 -15 16
13 19 34 4 24 -5 -3 -10 -1 -10 5 0 7 6 10 14 7 8 -3 17 -3 20 1 9 8 46 10 46
2 0 -4 -7 -29 -15 -56 -21 -70 -18 -76 11 -21 14 26 22 53 18 60 -4 7 -3 9 1
4 5 -4 16 0 26 9 32 29 48 11 51 -58 l3 -63 14 58 c11 42 20 61 35 67 29 11
32 7 41 -42 l8 -43 12 40 c7 24 19 41 29 43 13 3 17 -1 12 -15 -3 -10 -13 -48
-22 -85 -13 -53 -20 -68 -35 -68 -13 0 -20 11 -27 43 l-9 42 -7 -30 c-14 -57
-15 -57 -51 -53 -19 2 -35 0 -35 -4 0 -4 20 -8 45 -8 40 0 45 3 46 23 l0 22 9
-22 c6 -14 18 -23 30 -23 30 0 55 -27 42 -43 -7 -8 -7 -18 -2 -27 8 -12 10
-10 10 7 0 25 15 39 26 22 3 -6 1 -15 -6 -19 -8 -5 -7 -9 5 -14 10 -3 15 -14
13 -27 -2 -18 -11 -22 -48 -25 -40 -3 -117 -13 -145 -20 -5 -1 -35 -11 -66
-23 -60 -23 -95 -53 -84 -71 5 -7 0 -7 -13 1 -18 12 -28 7 -96 -49 l-75 -62
-15 52 c-9 29 -25 68 -35 87 l-18 34 -7 -45 c-7 -43 -9 -46 -44 -53 -20 -3
-45 -8 -54 -11 -12 -3 -18 0 -18 10 0 8 -5 27 -11 43 l-12 28 -8 -35 c-5 -19
-6 -55 -3 -80 l6 -45 -60 58 c-67 63 -150 107 -254 134 -37 10 -68 20 -68 23
0 4 9 16 20 28 19 20 31 22 124 22 l104 0 7 69 c6 56 10 70 26 74 10 3 19 0
20 -6 0 -7 7 6 15 27 8 22 12 42 9 44 -3 3 -5 0 -5 -7 0 -7 -5 -9 -11 -6 -5 4
-19 -1 -30 -11 -18 -16 -19 -16 -19 3 0 14 9 23 25 27 14 4 31 18 37 32 7 14
14 20 18 14 4 -6 12 7 19 30 13 44 35 51 86 28z m56 -45 c-8 -15 -10 -15 -11
-2 0 17 10 32 18 25 2 -3 -1 -13 -7 -23z m-261 -53 c15 -29 12 -37 -5 -13 -14
20 -23 21 -136 21 l-121 0 -19 -32 c-22 -37 -25 -27 -4 14 l15 29 130 -1 c116
0 131 -2 140 -18z m-230 -7 c-1 -5 -7 -19 -15 -33 -17 -29 -18 -40 -6 -40 5 0
18 17 28 38 17 35 63 59 63 32 0 -6 -10 -15 -22 -20 -13 -5 -17 -9 -10 -9 17
-1 15 -21 -3 -21 -8 0 -15 -4 -15 -10 0 -5 9 -10 20 -10 12 0 20 7 20 18 0 42
57 82 75 52 11 -17 -5 -32 -21 -19 -11 9 -16 6 -24 -16 -12 -32 -12 -35 -1
-35 5 0 11 10 15 22 4 18 8 20 17 11 10 -10 16 -6 31 17 10 17 26 30 38 30 28
0 28 -62 0 -90 -24 -24 -35 -25 -52 -6 -11 12 -16 12 -31 -2 -14 -12 -22 -14
-36 -5 -12 7 -23 8 -35 1 -12 -7 -21 -7 -28 0 -8 8 -17 8 -31 1 -13 -8 -22 -8
-30 0 -14 14 19 101 39 101 8 0 14 -3 14 -7z m215 -82 c-8 -17 -19 -32 -23
-32 -38 -7 -250 -4 -259 3 -7 6 -12 22 -12 37 1 25 2 25 8 -4 l6 -30 80 -1
c44 -1 87 2 96 7 9 5 20 4 27 -3 20 -20 60 0 74 38 7 19 14 31 16 25 2 -5 -4
-23 -13 -40z m971 -253 c17 -20 18 -21 1 -15 -14 5 -12 -1 9 -28 15 -19 27
-46 27 -60 0 -14 3 -27 7 -30 4 -2 6 -16 4 -30 -1 -14 4 -38 12 -53 19 -38 18
-48 -16 -122 -22 -47 -25 -58 -10 -40 11 14 20 30 20 37 0 6 4 14 9 18 11 6
11 2 -19 -120 -19 -80 -59 -170 -82 -186 -4 -3 5 -23 21 -45 29 -40 57 -111
48 -121 -3 -3 -16 16 -28 41 -19 40 -25 46 -53 46 -21 -1 -37 -8 -49 -26 -10
-13 -15 -24 -10 -23 20 3 24 -2 13 -16 -9 -11 -16 -12 -20 -5 -4 6 -24 -6 -50
-30 -24 -22 -51 -40 -60 -40 -19 0 -72 -55 -63 -64 6 -6 -29 -10 -54 -7 -7 1
-13 -3 -13 -9 0 -6 -4 -8 -10 -5 -5 3 -10 0 -10 -7 0 -11 -2 -10 -9 0 -6 11
-10 10 -15 -4 -4 -9 -2 -22 4 -28 5 -5 10 -21 10 -36 -1 -24 -2 -23 -38 18
-27 32 -42 41 -55 36 -9 -3 -23 -1 -31 5 -7 6 -17 7 -21 3 -5 -4 -5 1 -2 10 4
12 1 18 -8 18 -25 0 -30 1 -43 13 -11 8 -18 6 -30 -11 -17 -21 -19 -21 -77 -7
-33 8 -69 14 -81 15 l-21 0 22 -82 c12 -46 25 -101 28 -123 l7 -40 -16 40 c-8
22 -24 78 -36 124 -15 58 -24 79 -29 68 -7 -12 -17 -13 -46 -6 -21 5 -41 9
-44 9 -4 0 -11 -18 -17 -40 -11 -44 -6 -50 51 -64 15 -3 27 -11 27 -18 0 -15
-40 -78 -50 -78 -11 0 -21 45 -15 62 4 10 -7 18 -35 27 -39 12 -50 24 -30 36
5 3 10 15 10 25 0 10 6 21 13 24 22 9 -24 35 -75 42 -26 4 -48 11 -48 16 0 6
-7 8 -15 4 -9 -3 -15 0 -15 9 0 8 -7 15 -15 15 -18 0 -19 -12 -2 -29 10 -10 9
-11 -6 -6 -9 4 -17 12 -17 18 0 6 -3 7 -6 4 -4 -4 -1 -13 6 -22 8 -10 9 -15 1
-15 -17 0 -13 -17 6 -25 10 -3 19 -1 21 4 2 6 14 11 28 11 15 0 22 -5 18 -13
-2 -7 5 -23 16 -35 13 -14 16 -22 8 -22 -15 1 -108 32 -125 43 -6 4 -14 3 -18
-3 -3 -5 1 -10 9 -10 9 0 16 -4 16 -10 0 -16 -30 -11 -37 6 -3 9 -1 25 5 35 7
10 12 29 12 41 1 13 8 37 16 53 8 17 12 22 9 12 -5 -20 -1 -21 26 -7 25 14 24
36 -1 52 -25 16 -25 31 -3 65 l18 26 -32 -6 c-20 -4 -35 -2 -39 5 -5 8 -2 9 9
5 10 -3 17 -2 17 3 0 6 -8 10 -17 10 -14 0 -18 9 -19 35 -1 23 3 35 12 35 17
0 29 59 14 73 -8 9 -9 7 -4 -7 5 -13 4 -17 -4 -12 -7 4 -12 2 -12 -6 0 -10 -3
-9 -11 2 -8 11 -12 12 -16 3 -2 -7 -12 -13 -20 -13 -9 0 -13 -6 -9 -15 3 -8 1
-15 -4 -15 -17 0 -11 32 8 46 16 13 16 13 0 14 -10 0 -17 3 -16 8 1 4 -4 40
-11 81 -11 63 -11 222 1 309 2 21 24 13 57 -20 34 -35 46 -79 38 -138 -5 -37
-3 -40 28 -50 19 -6 45 -20 60 -32 30 -23 65 -88 65 -119 0 -16 4 -20 17 -14
28 10 107 24 114 19 11 -6 69 58 74 81 2 11 8 38 12 59 l8 40 70 13 c39 7 84
15 101 18 30 5 31 4 37 -37 5 -36 3 -46 -16 -61 -22 -18 -22 -18 0 -8 28 14
36 -7 27 -67 -6 -43 -7 -44 -38 -37 -26 7 -52 10 -89 14 -5 1 -5 6 -2 11 3 6
2 10 -4 10 -17 0 -23 -20 -7 -26 12 -5 13 -10 5 -25 -11 -21 -34 -25 -44 -9
-4 6 -2 17 5 25 18 22 -23 40 -44 19 -9 -8 -16 -19 -16 -24 0 -4 -16 -8 -36
-8 -20 0 -44 -7 -52 -16 -15 -15 -14 -17 16 -28 33 -13 43 -28 17 -28 -8 0
-38 -24 -67 -52 l-53 -53 0 -72 c0 -40 -1 -73 -3 -73 -2 0 -12 9 -24 20 -16
15 -25 17 -35 9 -10 -9 -8 -17 12 -41 14 -16 25 -33 25 -36 0 -4 4 -13 9 -21
7 -11 23 -3 75 39 66 52 67 53 51 77 -9 14 -14 31 -11 39 4 11 14 5 38 -23 45
-52 47 -53 98 -48 25 2 60 4 78 4 19 1 31 5 27 11 -3 6 -2 10 4 10 5 0 12 -6
14 -12 3 -7 6 2 6 21 1 28 4 33 21 28 25 -7 46 22 56 78 3 22 10 45 14 50 4 6
13 36 19 67 11 52 15 57 44 64 18 4 58 6 89 6 57 -1 57 -1 52 26 -8 42 33 112
87 147 43 28 46 32 41 66 -8 65 41 127 118 150 35 11 38 14 38 50 1 63 16 74
48 37z m-436 -42 c0 -2 -8 -10 -17 -17 -16 -13 -17 -12 -4 4 13 16 21 21 21
13z m48 -37 c-3 -8 -7 -3 -11 10 -4 17 -3 21 5 13 5 -5 8 -16 6 -23z m-358
-29 c0 -5 -13 -10 -30 -10 -16 0 -30 5 -30 10 0 6 14 10 30 10 17 0 30 -4 30
-10z m342 -16 c10 -9 -43 -137 -66 -161 -22 -23 -33 -26 -83 -24 -26 1 -33 5
-33 21 0 15 7 20 28 20 37 0 77 42 98 103 11 32 21 47 33 47 10 0 20 -3 23 -6z
m-242 -24 c0 -5 -8 -10 -17 -10 -15 0 -16 2 -3 10 19 12 20 12 20 0z m281 -51
c-11 -24 -20 -39 -20 -33 -1 16 29 87 35 82 2 -3 -4 -25 -15 -49z m-396 35
c13 -5 14 -8 3 -15 -19 -13 -28 -11 -28 6 0 17 2 18 25 9z m-225 -77 c-1 -4
10 -22 24 -38 15 -17 29 -43 33 -57 3 -15 11 -31 17 -35 7 -6 6 -7 -4 -5 -15
4 -100 122 -100 140 0 5 7 8 16 6 8 -2 15 -7 14 -11z m285 3 c7 -11 -39 -25
-55 -15 -5 3 -8 11 -5 16 8 12 52 12 60 -1z m282 -68 c-15 -16 -46 -39 -70
-52 -23 -13 -40 -21 -37 -18 78 79 177 143 107 70z m-357 -172 c-6 -4 -11 -11
-10 -16 1 -5 -3 -10 -9 -12 -14 -5 -14 4 0 29 5 11 15 17 21 13 7 -4 6 -9 -2
-14z m110 -10 c0 -5 -7 -10 -16 -10 -8 0 -12 5 -9 10 3 6 10 10 16 10 5 0 9
-4 9 -10z m46 -6 c26 -7 21 -44 -6 -44 -35 0 -80 13 -80 22 0 6 9 8 21 5 12
-3 22 0 26 9 6 16 9 16 39 8z m-46 -52 l44 -7 -29 -20 c-17 -11 -35 -20 -42
-20 -7 0 -18 -8 -25 -17 -12 -15 -29 -19 -146 -35 -39 -5 -44 -3 -40 13 2 13
13 20 36 22 23 2 39 13 58 38 28 37 48 40 144 26z m-567 -276 c-4 -20 -60 -53
-71 -41 -10 10 22 67 42 75 25 9 35 -3 29 -34z m1307 -13 c0 -9 -7 -25 -17
-35 -9 -11 -11 -18 -5 -18 7 0 12 -5 12 -11 0 -8 -4 -8 -15 1 -22 18 -8 99 16
85 5 -4 9 -13 9 -22z m-112 0 c-10 -2 -26 -2 -35 0 -10 3 -2 5 17 5 19 0 27
-2 18 -5z m-64 -19 c17 -6 22 -24 8 -24 -5 0 -17 7 -28 15 -19 15 -8 20 20 9z
m-89 -14 c3 -5 1 -10 -4 -10 -6 0 -11 5 -11 10 0 6 2 10 4 10 3 0 8 -4 11 -10z
m87 -51 c-4 -25 -7 -28 -31 -23 -34 9 -33 7 -17 30 8 11 23 20 33 21 16 1 19
-4 15 -28z m-119 -8 c-3 -12 -11 -17 -19 -14 -17 6 -18 20 -1 26 22 9 25 7 20
-12z m-787 -1 c20 -8 24 -14 16 -22 -6 -6 -8 -17 -5 -24 3 -10 0 -12 -10 -8
-9 3 -13 13 -10 25 4 13 -2 22 -18 28 -33 13 -7 14 27 1z m419 0 c-6 -9 8 -14
28 -11 4 0 7 -10 7 -24 0 -17 -4 -23 -14 -19 -8 3 -12 12 -9 20 3 9 -1 14 -12
14 -9 0 -13 -5 -10 -10 8 -12 -66 -3 -79 11 -6 5 3 5 21 0 24 -7 32 -5 41 10
7 11 17 19 23 19 5 0 7 -4 4 -10z m-628 -27 c-4 -3 -2 -12 4 -20 13 -15 1 -17
-21 -3 -13 9 -13 11 0 20 17 11 26 13 17 3z m509 -18 c9 -8 24 -15 34 -15 17
0 17 -2 4 -30 -9 -16 -20 -30 -26 -30 -6 0 -8 3 -5 6 3 4 -5 15 -18 26 -25 20
-34 58 -14 58 6 0 17 -7 25 -15z m484 6 c0 -5 -7 -14 -15 -21 -12 -10 -15 -10
-15 2 0 8 3 18 7 21 9 10 23 9 23 -2z m261 -14 c-10 -9 -11 -8 -5 6 3 10 9 15
12 12 3 -3 0 -11 -7 -18z m-541 -13 c0 -7 -27 -34 -34 -34 -4 0 -1 9 6 20 12
19 28 27 28 14z m-572 -39 c-9 -20 -13 -22 -24 -10 -17 17 -18 32 -1 38 25 9
36 -3 25 -28z m1152 26 c0 -6 -4 -13 -10 -16 -5 -3 -10 1 -10 9 0 9 5 16 10
16 6 0 10 -4 10 -9z m-35 -11 c3 -5 2 -10 -4 -10 -5 0 -13 5 -16 10 -3 6 -2
10 4 10 5 0 13 -4 16 -10z m6 -43 c-10 -9 -11 -8 -5 6 3 10 9 15 12 12 3 -3 0
-11 -7 -18z m-84 -43 c-3 -3 -12 -4 -19 -1 -8 3 -5 6 6 6 11 1 17 -2 13 -5z
m-177 -14 c0 -5 -7 -10 -15 -10 -10 0 -15 -10 -15 -29 0 -21 6 -30 22 -35 22
-5 22 -6 3 -20 -18 -13 -22 -13 -38 2 -12 10 -14 19 -7 26 14 14 13 56 -2 57
-7 1 -2 5 12 9 35 11 40 11 40 0z m222 -7 c36 -43 30 -48 -53 -48 -44 0 -79 3
-79 8 0 7 16 11 33 8 4 0 7 5 7 12 0 8 4 7 10 -3 8 -12 10 -12 11 5 l0 20 9
-20 c8 -19 9 -19 9 2 1 19 12 29 32 32 3 1 13 -7 21 -16z m-881 -24 c-9 -22
-10 -22 -10 -3 -1 11 2 24 6 27 12 12 14 0 4 -24z m779 27 c0 -2 -8 -10 -17
-17 -16 -13 -17 -12 -4 4 13 16 21 21 21 13z m-370 -28 c0 6 20 10 45 10 43 0
57 -9 35 -23 -5 -3 -10 0 -11 7 0 7 -4 4 -9 -7 -12 -27 -12 -43 0 -25 5 8 13
11 17 6 4 -4 0 -13 -9 -20 -10 -7 -15 -16 -11 -20 4 -4 0 -4 -10 0 -9 3 -17
10 -17 14 0 4 -12 5 -26 2 -23 -4 -25 -2 -20 16 4 11 2 23 -4 27 -5 3 -10 11
-10 17 0 7 6 6 15 -2 9 -8 15 -8 15 -2z m410 -50 c0 -17 -3 -19 -12 -10 -7 7
-17 12 -22 12 -6 -1 0 -9 13 -20 12 -11 28 -17 34 -13 6 3 7 1 3 -5 -9 -15
-33 -3 -61 29 -11 12 -14 19 -7 15 6 -4 12 -2 12 3 0 6 9 11 20 11 14 0 20 -7
20 -22z m23 7 c4 -8 2 -17 -3 -20 -6 -4 -10 3 -10 14 0 25 6 27 13 6z m57 1
c0 -2 -7 -7 -16 -10 -8 -3 -12 -2 -9 4 6 10 25 14 25 6z"/>
<path d="M561 1703 c0 -6 -4 -20 -7 -30 -5 -14 -4 -15 5 -7 7 7 11 20 8 30 -3
11 -5 14 -6 7z"/>
<path d="M830 1662 c0 -7 -6 -12 -14 -12 -9 0 -23 -26 -36 -65 -21 -63 -23
-65 -56 -65 -24 0 -34 5 -34 15 0 20 -49 20 -56 1 -4 -12 -27 -14 -104 -13
-54 1 -96 -1 -93 -5 2 -5 48 -8 103 -8 78 0 99 3 104 15 7 20 32 19 40 -1 4
-11 17 -14 48 -12 42 3 42 3 59 61 19 64 34 90 25 42 -5 -23 -3 -21 9 9 8 22
13 42 10 44 -3 3 -5 0 -5 -6z"/>
<path d="M665 1617 c-4 -10 -5 -21 -1 -24 10 -10 18 4 13 24 -4 17 -4 17 -12
0z"/>
<path d="M1037 1616 c-4 -10 -5 -21 -2 -24 9 -9 17 6 13 25 -3 17 -4 17 -11
-1z"/>
<path d="M525 1589 c-8 -34 1 -51 15 -29 12 19 13 60 1 60 -5 0 -12 -14 -16
-31z"/>
<path d="M869 1595 c-4 -5 -10 -25 -14 -42 -5 -26 -12 -33 -30 -33 -14 0 -25
7 -28 18 -4 13 -5 12 -6 -4 -1 -18 5 -23 38 -26 28 -2 37 0 34 9 -3 8 0 20 7
28 6 7 10 24 8 37 -2 13 -6 19 -9 13z"/>
<path d="M896 1565 c-26 -33 -25 -44 1 -27 11 7 37 62 29 62 -2 0 -16 -16 -30
-35z"/>
<path d="M996 1534 c-5 -12 -17 -15 -51 -12 -25 2 -45 0 -45 -4 0 -15 99 -9
107 6 4 8 17 16 28 19 16 4 14 5 -6 6 -16 1 -29 -5 -33 -15z"/>
<path d="M1010 1465 c-6 -8 -10 -19 -8 -24 1 -6 8 1 15 14 13 28 11 31 -7 10z"/>
<path d="M562 1450 c0 -14 2 -19 5 -12 2 6 2 18 0 25 -3 6 -5 1 -5 -13z"/>
<path d="M1081 1447 c-13 -20 -13 -21 2 -8 14 11 17 11 17 1 0 -8 3 -11 6 -7
3 3 2 12 -3 21 -7 13 -11 12 -22 -7z"/>
<path d="M1140 1454 c0 -8 5 -12 10 -9 6 4 8 11 5 16 -9 14 -15 11 -15 -7z"/>
<path d="M1176 1462 c-2 -4 -1 -14 5 -22 7 -12 9 -10 9 8 0 23 -5 28 -14 14z"/>
<path d="M490 1444 c0 -8 5 -12 10 -9 6 4 8 11 5 16 -9 14 -15 11 -15 -7z"/>
<path d="M720 1451 c0 -7 -5 -9 -12 -5 -7 5 -8 3 -3 -5 5 -9 10 -10 18 -2 6 6
8 14 4 18 -4 3 -7 1 -7 -6z"/>
<path d="M761 1444 c0 -11 3 -14 6 -6 3 7 2 16 -1 19 -3 4 -6 -2 -5 -13z"/>
<path d="M860 1450 c0 -5 5 -10 11 -10 5 0 7 5 4 10 -3 6 -8 10 -11 10 -2 0
-4 -4 -4 -10z"/>
<path d="M931 1444 c0 -11 3 -14 6 -6 3 7 2 16 -1 19 -3 4 -6 -2 -5 -13z"/>
<path d="M966 1443 c-6 -14 -5 -15 5 -6 7 7 10 15 7 18 -3 3 -9 -2 -12 -12z"/>
<path d="M848 1413 c7 -3 16 -2 19 1 4 3 -2 6 -13 5 -11 0 -14 -3 -6 -6z"/>
<path d="M973 1413 c9 -2 23 -2 30 0 6 3 -1 5 -18 5 -16 0 -22 -2 -12 -5z"/>
<path d="M320 1585 c-6 -15 -8 -30 -6 -33 3 -3 10 8 16 23 6 15 8 30 6 33 -3
3 -10 -8 -16 -23z"/>
<path d="M660 975 c0 -18 -16 -20 -23 -2 -3 8 -10 6 -21 -8 -14 -18 -15 -18
-16 -2 0 21 -4 21 -36 1 -23 -16 -23 -17 -7 -30 10 -7 28 -14 40 -14 12 0 24
-6 27 -12 5 -10 7 -10 12 0 3 7 16 18 28 23 11 5 32 16 46 24 l24 14 -28 10
c-37 15 -46 14 -46 -4z"/>
<path d="M1137 914 c-3 -4 -21 -9 -38 -13 -25 -5 -35 -13 -40 -35 -6 -20 -4
-26 5 -23 7 3 18 -4 24 -14 7 -10 19 -19 26 -19 8 0 18 -5 22 -12 5 -8 2 -9
-11 -4 -15 5 -16 4 -5 -9 11 -13 2 -14 -78 -9 -115 9 -182 -7 -182 -42 0 -36
36 -41 65 -10 13 14 28 26 34 26 18 0 21 -17 6 -30 -21 -17 -19 -22 19 -48 23
-16 42 -21 55 -17 15 4 21 2 21 -9 0 -20 -54 -11 -93 16 -25 18 -28 18 -34 2
-4 -11 2 -24 18 -37 l24 -20 -24 8 c-47 15 -57 12 -89 -23 -23 -26 -30 -42
-26 -56 9 -31 15 -34 62 -42 33 -5 42 -4 42 8 0 10 10 15 30 15 23 0 29 -4 25
-14 -3 -8 -5 -17 -5 -19 0 -3 -5 -2 -11 2 -15 9 -29 -14 -29 -47 0 -18 8 -29
25 -37 34 -16 55 -15 55 1 0 7 8 17 18 23 10 7 27 39 37 73 11 33 23 61 26 61
4 0 9 18 13 39 3 22 10 41 14 43 5 1 23 25 42 52 29 43 30 47 9 33 -13 -9 -27
-17 -32 -17 -12 0 17 46 51 82 l26 28 -22 44 c-24 48 -56 69 -75 50z m-17 -84
c0 -5 -4 -10 -10 -10 -5 0 -10 5 -10 10 0 6 5 10 10 10 6 0 10 -4 10 -10z"/>
<path d="M496 825 c-3 -8 -1 -15 3 -15 5 0 11 7 15 15 3 8 1 15 -3 15 -5 0
-11 -7 -15 -15z"/>
<path d="M1262 804 c-26 -18 -30 -39 -5 -30 9 4 -2 -13 -25 -38 -46 -49 -76
-102 -68 -119 3 -7 5 -8 5 -1 1 6 14 9 30 6 16 -2 32 1 35 7 5 8 13 8 28 0 18
-10 18 -7 -5 23 l-26 34 30 29 c43 40 61 69 53 89 -8 20 -23 20 -52 0z"/>
<path d="M195 751 c-6 -11 9 -23 19 -14 9 9 7 23 -3 23 -6 0 -12 -4 -16 -9z"/>
<path d="M915 350 c3 -5 8 -10 11 -10 2 0 4 5 4 10 0 6 -5 10 -11 10 -5 0 -7
-4 -4 -10z"/>
<path d="M695 780 c-3 -5 1 -10 10 -10 9 0 13 5 10 10 -3 6 -8 10 -10 10 -2 0
-7 -4 -10 -10z"/>
<path d="M1322 150 c13 -20 28 -27 28 -12 0 10 -22 32 -32 32 -5 0 -3 -9 4
-20z"/>
<path d="M1300 140 c0 -5 5 -10 10 -10 6 0 10 5 10 10 0 6 -4 10 -10 10 -5 0
-10 -4 -10 -10z"/>
<path d="M881 124 c0 -11 3 -14 6 -6 3 7 2 16 -1 19 -3 4 -6 -2 -5 -13z"/>
</g>
</svg>
